<svg xmlns="http://www.w3.org/2000/svg" viewBox="0 0 10 10">
  <defs>
    <style>
      .cls-1 {
        fill: #40c351;
      }

      .cls-2 {
        fill: #fff;
        fill-rule: evenodd;
      }
    </style>
  </defs>
  <g id="Group_2366" data-name="Group 2366" transform="translate(-402.5 -141)">
    <path id="icons8-whatsapp" class="cls-1" d="M7,2A4.979,4.979,0,0,0,2.649,9.437l-.641,2.287a.217.217,0,0,0,.262.27L4.655,11.4A5,5,0,1,0,7,2Zm0,.435a4.565,4.565,0,1,1-2.226,8.551.217.217,0,0,0-.158-.021l-2.089.518.56-2a.217.217,0,0,0-.022-.169A4.564,4.564,0,0,1,7,2.435ZM5.183,4.391a.691.691,0,0,0-.5.228,1.693,1.693,0,0,0-.507,1.205,2.564,2.564,0,0,0,.568,1.442h0c-.006-.008.078.113.189.259a6.884,6.884,0,0,0,.464.542A5.034,5.034,0,0,0,7.023,9.25a7.747,7.747,0,0,0,.752.274,2,2,0,0,0,.906.058,1.528,1.528,0,0,0,.57-.235,1.056,1.056,0,0,0,.469-.509,1.794,1.794,0,0,0,.1-.448,1.026,1.026,0,0,0,0-.171.3.3,0,0,0-.048-.171c-.1-.166-.216-.171-.335-.23-.066-.033-.256-.125-.445-.216s-.354-.17-.455-.206a.512.512,0,0,0-.254-.043A.433.433,0,0,0,8,7.543c-.061.091-.308.382-.383.468L7.59,8c-.093-.046-.207-.085-.375-.174A3.105,3.105,0,0,1,6.6,7.4h0a3.59,3.59,0,0,1-.659-.809c.005-.006,0,0,.01-.009h0c.078-.076.146-.168.2-.234a1.084,1.084,0,0,0,.158-.256.481.481,0,0,0-.011-.417h0c0,.006-.025-.055-.054-.125l-.109-.26c-.081-.2-.172-.414-.226-.543h0a.566.566,0,0,0-.262-.312A.42.42,0,0,0,5.44,4.4h0C5.359,4.392,5.271,4.391,5.183,4.391Zm0,.435c.084,0,.166,0,.236,0s.067,0,.053,0,0-.009.045.087c.053.126.144.345.226.541l.11.262c.031.072.047.112.066.151h0c.019.037.017.013.011.026a.634.634,0,0,1-.1.167c-.071.081-.143.172-.181.21a.468.468,0,0,0-.131.184.42.42,0,0,0,.04.34,3.978,3.978,0,0,0,.757.931,3.554,3.554,0,0,0,.694.482c.193.1.35.161.386.179a.488.488,0,0,0,.281.061.423.423,0,0,0,.256-.143h0c.078-.088.308-.351.419-.513l.04.014h0c.017.006.227.1.414.189s.378.182.439.213c.089.044.131.073.142.073a.511.511,0,0,1,0,.071,1.384,1.384,0,0,1-.078.338.82.82,0,0,1-.293.289,1.352,1.352,0,0,1-.4.172,1.558,1.558,0,0,1-.712-.042,7.265,7.265,0,0,1-.712-.259A4.646,4.646,0,0,1,5.711,7.769a6.46,6.46,0,0,1-.434-.508c-.1-.136-.15-.206-.188-.256h0a2.349,2.349,0,0,1-.48-1.18A1.146,1.146,0,0,1,5,4.915.258.258,0,0,1,5.183,4.826Z" transform="translate(400.5 139)"/>
    <g id="icons8-whatsapp-2" data-name="icons8-whatsapp" transform="translate(397.55 135.881)">
      <path id="Path_8105" data-name="Path 8105" class="cls-1" d="M16.668,9.654a4.941,4.941,0,0,0-7.68,6.119l.118.187-.5,1.822,1.87-.49.181.107a4.931,4.931,0,0,0,2.515.688h0a4.941,4.941,0,0,0,3.495-8.434Z" transform="translate(-3.204 -3.087)"/>
      <path id="Path_8106" data-name="Path 8106" class="cls-2" d="M15.9,15.474c-.111-.247-.228-.252-.334-.257-.087,0-.186,0-.285,0a.546.546,0,0,0-.4.186,1.665,1.665,0,0,0-.52,1.239,2.888,2.888,0,0,0,.606,1.536,6.1,6.1,0,0,0,2.537,2.242c1.255.495,1.51.4,1.782.372a1.5,1.5,0,0,0,1-.706,1.244,1.244,0,0,0,.087-.706c-.037-.062-.136-.1-.285-.173s-.879-.434-1.015-.483-.235-.074-.334.075-.384.483-.47.582-.173.112-.322.037a4.066,4.066,0,0,1-1.194-.737,4.475,4.475,0,0,1-.826-1.028c-.087-.148-.009-.229.065-.3s.148-.173.223-.26a1.016,1.016,0,0,0,.148-.248.273.273,0,0,0-.013-.26C16.321,16.5,16.032,15.768,15.9,15.474Z" transform="translate(-7.416 -7.901)"/>
    </g>
  </g>
</svg>
