<svg xmlns="http://www.w3.org/2000/svg" viewBox="0 0 13.825 12">
<defs>
<style>
.cls-1 {
fill: #404040;
}
</style>
</defs>
<path id="Path_7882" data-name="Path 7882" class="cls-1" d="M12.315,7.137l1.469-3.883a.685.685,0,0,0-.07-.612.671.671,0,0,0-.542-.28H3.708L2.974.437A.681.681,0,0,0,2.344,0H.262A.269.269,0,0,0,0,.262.269.269,0,0,0,.262.525H2.344a.132.132,0,0,1,.122.087l.787,2.047a.064.064,0,0,0,.017.052L5.055,7.4c0,.017.017.035.017.052l.752,1.977a1.3,1.3,0,1,0,1.539,1.277,1.173,1.173,0,0,0-.262-.77h3.673a1.316,1.316,0,0,0-.262.77,1.294,1.294,0,1,0,1.364-1.294H6.472a.132.132,0,0,1-.122-.087L5.685,7.574H11.7A.7.7,0,0,0,12.315,7.137Zm.962-4.2a.133.133,0,0,1,.017.122L11.825,6.945a.132.132,0,0,1-.122.087H5.475L3.9,2.869h9.271A.176.176,0,0,1,13.277,2.939ZM6.07,11.458a.77.77,0,1,1,.77-.77A.765.765,0,0,1,6.07,11.458Zm6.525-.77a.77.77,0,1,1-.77-.77h0A.777.777,0,0,1,12.595,10.688Z"/>
</svg>
