<svg id="icons8-user" xmlns="http://www.w3.org/2000/svg" viewBox="0 0 9.42 10">
<defs>
<style>
.cls-1 {
fill: #9d0000;
}
</style>
</defs>
<path id="Path_810" data-name="Path 810" class="cls-1" d="M10.618,3.406a2.13,2.13,0,0,0-2.1,1.152A3.757,3.757,0,0,0,8.505,6.9a.7.7,0,0,0-.169.572,1.259,1.259,0,0,0,.227.638c.062.079.144.086.22.125a2.521,2.521,0,0,0,.213.7,2.141,2.141,0,0,0,.191.315,1.1,1.1,0,0,0,.1.1c0,.29,0,.531-.022.836a1.033,1.033,0,0,1-.543.477c-.3.149-.686.286-1.079.455a3.432,3.432,0,0,0-1.115.7,2.035,2.035,0,0,0-.58,1.35l-.015.249h9.42l-.015-.249a2.039,2.039,0,0,0-.58-1.35,3.41,3.41,0,0,0-1.108-.7c-.391-.169-.774-.306-1.071-.455a1.055,1.055,0,0,1-.543-.47c-.026-.309-.024-.551-.022-.844a1.241,1.241,0,0,0,.1-.1,2.237,2.237,0,0,0,.183-.315,2.6,2.6,0,0,0,.213-.7c.073-.039.152-.048.213-.125a1.259,1.259,0,0,0,.227-.638.7.7,0,0,0-.161-.558,4.414,4.414,0,0,0,.213-1.592,1.85,1.85,0,0,0-.315-.954,1.382,1.382,0,0,0-.866-.521,1.461,1.461,0,0,0-1.2-.44Zm.007.47h.007c.472,0,.779.14.866.293l.059.1.11.015a.879.879,0,0,1,.646.36,1.427,1.427,0,0,1,.227.719,4.36,4.36,0,0,1-.22,1.526l-.059.183.161.1a.281.281,0,0,1,.066.257.839.839,0,0,1-.125.4c-.042.054-.064.051-.066.051l-.2.015-.022.191a2.134,2.134,0,0,1-.2.646,1.747,1.747,0,0,1-.139.242c-.043.06-.088.093-.066.081l-.125.066v.139a9.871,9.871,0,0,0,.022,1.012V10.3l.015.029a1.463,1.463,0,0,0,.785.756c.341.171.733.3,1.1.455a2.988,2.988,0,0,1,.954.6,1.523,1.523,0,0,1,.389.8H6.48a1.519,1.519,0,0,1,.389-.8,3.014,3.014,0,0,1,.961-.6c.37-.159.758-.284,1.1-.455a1.474,1.474,0,0,0,.792-.756l.015-.059A9.871,9.871,0,0,0,9.76,9.254V9.114l-.125-.066c.021.011-.029-.021-.073-.081a1.7,1.7,0,0,1-.147-.242,2.05,2.05,0,0,1-.2-.646L9.2,7.889,9,7.874s-.024,0-.066-.051a.839.839,0,0,1-.125-.4.284.284,0,0,1,.066-.257l.154-.1L8.982,6.9a3.489,3.489,0,0,1-.029-2.15C9.182,4.225,9.65,3.9,10.626,3.876Z" transform="translate(-5.937 -3.406)"/>
</svg>
