<svg xmlns="http://www.w3.org/2000/svg" viewBox="0 0 9.418 8.466">
<defs>
<style>
.cls-1 {
fill: #404040;
}
</style>
</defs>
<g id="icons8-like" transform="translate(-1 -2)">
<path id="Path_7885" data-name="Path 7885" class="cls-1" d="M3.691,2A2.684,2.684,0,0,0,1.037,4.344,1.6,1.6,0,0,0,1,4.691C1,6.228,2.175,7.615,3.3,8.645a15.9,15.9,0,0,0,2.239,1.713l.173.108.173-.108A16,16,0,0,0,8.124,8.645c1.119-1.03,2.294-2.417,2.294-3.955a1.709,1.709,0,0,0-.034-.342A2.686,2.686,0,0,0,7.727,2,2.614,2.614,0,0,0,5.709,3.035,2.614,2.614,0,0,0,3.691,2Zm0,.673a2,2,0,0,1,1.729.993l.289.489L6,3.666a2,2,0,0,1,3.721.778l.005.026a1.066,1.066,0,0,1,.021.221c0,1.177-1.012,2.481-2.079,3.461a12.969,12.969,0,0,1-1.958,1.5,13.068,13.068,0,0,1-1.96-1.5c-1.064-.98-2.076-2.283-2.076-3.461a1.03,1.03,0,0,1,.021-.221L1.7,4.454V4.438A2.006,2.006,0,0,1,3.691,2.673Z"/>
</g>
</svg>
