<svg xmlns="http://www.w3.org/2000/svg" viewBox="0 0 10.199 10.2">
  <defs>
    <style>
      .cls-1, .cls-3 {
        fill: #404040;
      }

      .cls-2, .cls-3 {
        stroke: none;
      }
    </style>
  </defs>
  <g id="phone" transform="translate(-2.899 -2.878)">
    <g id="Path_905" data-name="Path 905" class="cls-1" transform="translate(0 0)">
      <path class="cls-2" d="M 11.18988609313965 13.02807235717773 C 11.18355655670166 13.02807235717773 11.17712593078613 13.02797222137451 11.17067623138428 13.02778244018555 C 10.98551654815674 13.0216121673584 10.42253684997559 13.00284194946289 9.568826675415039 12.60157203674316 C 8.517036437988281 12.10720252990723 7.333666324615479 11.20647239685059 6.051596164703369 9.924412727355957 C 4.769956588745117 8.641992568969727 3.869526386260986 7.458632469177246 3.375316381454468 6.407182216644287 C 2.974056482315063 5.552592277526855 2.955286502838135 4.990282535552979 2.949116468429565 4.805502414703369 C 2.942176342010498 4.573682308197021 3.059996366500854 4.417782306671143 3.173936367034912 4.267022609710693 C 3.277816295623779 4.128512382507324 3.419456481933594 3.973572492599487 3.606866359710693 3.793502330780029 C 3.934996366500854 3.478152513504028 4.27898645401001 3.207042455673218 4.430146217346191 3.101742506027222 C 4.591716289520264 2.98817253112793 4.771356582641602 2.928072452545166 4.949486255645752 2.928072452545166 C 4.970246315002441 2.928072452545166 4.990826606750488 2.928902387619019 5.011146545410156 2.93055248260498 C 5.203596591949463 2.946262359619141 5.367776393890381 3.035142421722412 5.473476409912109 3.180842399597168 L 5.483006477355957 3.19397234916687 L 5.483006477355957 3.195111036300659 C 5.569686412811279 3.317915678024292 5.841650485992432 3.728618621826172 6.128946304321289 4.16246223449707 L 6.146396636962891 4.188812255859375 C 6.412406444549561 4.591692447662354 6.748766422271729 5.102972507476807 6.821366310119629 5.218162536621094 C 6.964756488800049 5.442452430725098 6.949046611785889 5.724452495574951 6.774516582489014 6.056052207946777 C 6.704392433166504 6.18986988067627 6.53520393371582 6.4906005859375 6.284779071807861 6.926581859588623 C 6.419044494628906 7.13206672668457 6.758433818817139 7.580176830291748 7.577496528625488 8.398472785949707 C 8.397772789001465 9.218749046325684 8.844812393188477 9.557498931884766 9.049423217773438 9.691230773925781 C 9.206412315368652 9.601100921630859 9.723432540893555 9.304967880249023 9.918976783752441 9.201542854309082 C 10.0985860824585 9.106712341308594 10.26612663269043 9.058642387390137 10.4169864654541 9.058642387390137 C 10.53893661499023 9.058642387390137 10.65193653106689 9.089921951293945 10.75282669067383 9.151612281799316 C 10.99084663391113 9.297552108764648 12.60740661621094 10.3729419708252 12.79009628295898 10.50119209289551 C 12.93903636932373 10.60568237304688 13.02964687347412 10.7706127166748 13.04523658752441 10.96559238433838 C 13.06074619293213 11.15963268280029 12.99936676025391 11.36607265472412 12.87238597869873 11.5468921661377 C 12.76755619049072 11.69737243652344 12.49698638916016 12.04090213775635 12.18166637420654 12.36997222900391 C 12.00432682037354 12.55453205108643 11.84943675994873 12.69615268707275 11.70809650421143 12.80296230316162 C 11.56845664978027 12.90848255157471 11.41019630432129 13.02807235717773 11.18988609313965 13.02807235717773 Z M 3.5038902759552 4.803530216217041 C 3.510098457336426 5.003275394439697 3.523736953735352 5.417612552642822 3.876666307449341 6.17036247253418 C 4.343086242675781 7.163892269134521 5.206706523895264 8.294782638549805 6.443526268005371 9.53159236907959 C 7.681186199188232 10.7700023651123 8.812066078186035 11.63391208648682 9.804756164550781 12.09934234619141 C 10.55764961242676 12.45318794250488 10.97250461578369 12.46681880950928 11.17251491546631 12.47300815582275 C 11.17714405059814 12.47072696685791 11.18164920806885 12.46879005432129 11.18564605712891 12.46707248687744 C 11.22097682952881 12.45188236236572 11.29449653625488 12.42027282714844 11.37465667724609 12.36015224456787 C 11.48444652557373 12.27781200408936 11.62535667419434 12.14832210540771 11.78214645385742 11.98568248748779 C 12.0627965927124 11.69367218017578 12.33518600463867 11.34857273101807 12.41864681243896 11.22872257232666 L 12.43356609344482 11.2072925567627 L 12.43375301361084 11.2072925567627 C 12.51949119567871 11.06992435455322 12.47615909576416 10.971848487854 12.46383571624756 10.9492769241333 C 12.30189990997314 10.83756160736084 10.64752769470215 9.738750457763672 10.46891975402832 9.627345085144043 C 10.46371459960938 9.626358985900879 10.4515323638916 9.624802589416504 10.43249607086182 9.624802589416504 C 10.3944263458252 9.624802589416504 10.29339599609375 9.631352424621582 10.17762660980225 9.69199275970459 C 9.988126754760742 9.791542053222656 9.179416656494141 10.25431251525879 9.171276092529297 10.25897216796875 L 9.056586265563965 10.32387256622314 L 9.031536102294922 10.33804225921631 L 9.006696701049805 10.3234920501709 L 8.893115997314453 10.2569522857666 C 8.868606567382813 10.24239253997803 8.286506652832031 9.891332626342773 7.184726238250732 8.790422439575195 C 6.083766460418701 7.689472198486328 5.733556270599365 7.107352256774902 5.719186305999756 7.083112239837646 L 5.652506351470947 6.969322204589844 L 5.637946605682373 6.944472312927246 L 5.652126312255859 6.919412612915039 L 5.716906547546387 6.804942607879639 C 5.721609115600586 6.796724796295166 6.16863489151001 6.015333652496338 6.278306484222412 5.809174060821533 L 6.278306484222412 5.809172630310059 L 6.284106254577637 5.797312259674072 C 6.357426643371582 5.658736228942871 6.354440689086914 5.53656005859375 6.350085258483887 5.510153293609619 C 6.282877922058105 5.404265880584717 5.960410118103027 4.91401481628418 5.683206558227539 4.494192600250244 C 5.39335298538208 4.056047439575195 5.087461471557617 3.597437620162964 5.030316352844238 3.515206098556519 C 5.018975734710693 3.50944972038269 4.99382495880127 3.498523235321045 4.959006309509277 3.49404239654541 C 4.950426578521729 3.493072509765625 4.940506458282471 3.492432355880737 4.929996490478516 3.492432355880737 C 4.869236469268799 3.492432355880737 4.807816505432129 3.51394248008728 4.747466564178467 3.556352376937866 L 4.700046539306641 3.589675664901733 C 4.553492069244385 3.698189258575439 4.252820014953613 3.940550565719604 3.990206480026245 4.192182540893555 C 3.831356287002563 4.345332622528076 3.702176332473755 4.486552238464355 3.61673641204834 4.600462436676025 C 3.556496381759644 4.680782318115234 3.524936437606812 4.754752635955811 3.509756326675415 4.790292263031006 C 3.507892847061157 4.794660568237305 3.505983114242554 4.799136161804199 3.5038902759552 4.803530216217041 Z"/>
      <path class="cls-3" d="M 11.18988704681396 12.97806930541992 C 11.38718700408936 12.97806930541992 11.52626609802246 12.87769031524658 11.67794609069824 12.76307201385498 C 11.83411598205566 12.64505195617676 11.99294662475586 12.49421215057373 12.1455659866333 12.33538246154785 C 12.45080661773682 12.01683235168457 12.72143650054932 11.67610263824463 12.83146667480469 11.51816272735596 C 13.08257675170898 11.16057205200195 13.04086685180664 10.73821258544922 12.76136684417725 10.54211235046387 C 12.5856761932373 10.41878223419189 10.96987628936768 9.343342781066895 10.72674655914307 9.194272041320801 C 10.62802314758301 9.133905410766602 10.52332019805908 9.108637809753418 10.41698360443115 9.108637809753418 C 10.25761604309082 9.108637809753418 10.09456539154053 9.165376663208008 9.942356109619141 9.245742797851563 C 9.742706298828125 9.351332664489746 9.202336311340332 9.661012649536133 9.04793643951416 9.74974250793457 C 8.931695938110352 9.676092147827148 8.490706443786621 9.382392883300781 7.542156219482422 8.433842658996582 C 6.592726230621338 7.485302448272705 6.29991626739502 7.044302463531494 6.226266384124756 6.928062438964844 C 6.314996242523193 6.773672580718994 6.623786449432373 6.235962390899658 6.730266571044922 6.03276252746582 C 6.863366603851318 5.779882431030273 6.937896251678467 5.493272304534912 6.779066562652588 5.24482250213623 C 6.712516307830811 5.139232635498047 6.409946441650391 4.678712368011475 6.104706287384033 4.216422557830811 C 5.798576354980469 3.754132509231567 5.508426189422607 3.315792322158813 5.433006286621094 3.211092472076416 L 5.433006286621094 3.21020245552063 C 5.334516525268555 3.074442386627197 5.18100643157959 2.994582414627075 5.007096290588379 2.980392456054688 C 4.988116264343262 2.978850603103638 4.968878746032715 2.978071689605713 4.949482440948486 2.978071689605713 C 4.790245532989502 2.978071689605713 4.618504047393799 3.030453681945801 4.458726406097412 3.142772436141968 C 4.30078649520874 3.252792358398438 3.960056304931641 3.523422479629517 3.641506433486938 3.829552412033081 C 3.48267650604248 3.98217248916626 3.330946445465088 4.141002655029297 3.213826417922974 4.297172546386719 C 3.095806360244751 4.453332424163818 2.992876291275024 4.596192359924316 2.999086380004883 4.803832530975342 C 3.005306482315063 4.990162372589111 3.02393651008606 5.541192531585693 3.420566320419312 6.385912418365479 C 3.817196369171143 7.229752540588379 4.586506366729736 8.387701988220215 6.08695650100708 9.889052391052246 C 7.588296413421631 11.3903923034668 8.746246337890625 12.15969276428223 9.590096473693848 12.55632209777832 C 10.43392658233643 12.95295238494873 10.98584651947021 12.97159194946289 11.17217636108398 12.97780227661133 C 11.17811965942383 12.9779806137085 11.18404674530029 12.97806930541992 11.18988704681396 12.97806930541992 M 3.453396320343018 4.788742542266846 C 3.4534592628479 4.789998054504395 3.453664779663086 4.790606021881104 3.45402455329895 4.790606021881104 C 3.458749055862427 4.790606021881104 3.490157127380371 4.685904502868652 3.576736450195313 4.570462226867676 C 3.669906377792358 4.446242332458496 3.807436466217041 4.298942565917969 3.955616474151611 4.156082630157471 C 4.252876281738281 3.871252536773682 4.598926544189453 3.597962379455566 4.718716621398926 3.514552354812622 L 4.718716621398926 3.515442371368408 C 4.799665451049805 3.458558797836304 4.872236251831055 3.442433595657349 4.92999792098999 3.442433595657349 C 4.942514419555664 3.442433595657349 4.954324722290039 3.44318962097168 4.965386390686035 3.444452524185181 C 5.027496337890625 3.452442407608032 5.064766407012939 3.477282524108887 5.064766407012939 3.477282524108887 C 5.101146221160889 3.527862310409546 5.41969633102417 4.005242347717285 5.724936485290527 4.466642379760742 C 6.030176639556885 4.928942203521729 6.341616630554199 5.402762413024902 6.395746231079102 5.488832473754883 C 6.404616355895996 5.502142429351807 6.417036533355713 5.652992248535156 6.328306198120117 5.820692539215088 L 6.328306198120117 5.821582317352295 C 6.228046417236328 6.012352466583252 5.76042652130127 6.829572200775146 5.76042652130127 6.829572200775146 L 5.695646286010742 6.944042205810547 L 5.76219654083252 7.057612419128418 C 5.76219654083252 7.057612419128418 6.110916614532471 7.645902633666992 7.220066547393799 8.75505256652832 C 8.330096244812012 9.864202499389648 8.918386459350586 10.21381282806396 8.918386459350586 10.21381282806396 L 9.031966209411621 10.28035259246826 L 9.14643669128418 10.21558284759521 C 9.14643669128418 10.21558284759521 9.96187686920166 9.748852729797363 10.15442657470703 9.647702217102051 C 10.2659740447998 9.589267730712891 10.37007331848145 9.574802398681641 10.43249607086182 9.574802398681641 C 10.46391868591309 9.574802398681641 10.48477649688721 9.578466415405273 10.49071598052979 9.582032203674316 C 10.64777660369873 9.678752899169922 12.39312648773193 10.83848285675049 12.50048637390137 10.91390228271484 C 12.50403594970703 10.9165620803833 12.59898662567139 11.06031227111816 12.46056652069092 11.25729274749756 L 12.45967674255371 11.25729274749756 C 12.37626647949219 11.37708282470703 12.10297679901123 11.72402286529541 11.81814670562744 12.02038288116455 C 11.67528629302979 12.16857242584229 11.52887630462646 12.30699253082275 11.40465641021729 12.4001522064209 C 11.28042602539063 12.49332237243652 11.16951656341553 12.52261257171631 11.18726634979248 12.52349281311035 C 10.9938268661499 12.51728248596191 10.56702613830566 12.51284217834473 9.783526420593262 12.14461231231689 C 9.000026702880859 11.77726268768311 7.882006168365479 11.041672706604 6.408166408538818 9.566952705383301 C 4.935216426849365 8.094002723693848 4.199636459350586 6.975982189178467 3.831396341323853 6.191592216491699 C 3.464046478271484 5.408092498779297 3.459606409072876 4.981292247772217 3.453396320343018 4.788742542266846 M 11.18988609313965 13.0780725479126 C 11.18304634094238 13.0780725479126 11.17610645294189 13.07796287536621 11.16914653778076 13.07775211334229 C 10.9813060760498 13.07149219512939 10.4105863571167 13.05247211456299 9.54755687713623 12.64682197570801 C 8.490516662597656 12.14999198913574 7.302416324615479 11.24593257904053 6.016246318817139 9.959762573242188 C 4.730496406555176 8.673242568969727 3.826746463775635 7.485142230987549 3.330066442489624 6.428452491760254 C 2.924426317214966 5.564542293548584 2.905396461486816 4.994492530822754 2.899146318435669 4.807172298431396 C 2.891676425933838 4.557572364807129 3.02043628692627 4.387202262878418 3.134046316146851 4.236882209777832 C 3.239446401596069 4.096332550048828 3.382846355438232 3.939412355422974 3.572216510772705 3.757442474365234 C 3.902436494827271 3.440102338790894 4.24911642074585 3.166912317276001 4.401566505432129 3.060722351074219 C 4.571426391601563 2.941312313079834 4.761006355285645 2.878072500228882 4.949486255645752 2.878072500228882 C 4.971596240997314 2.878072500228882 4.993536472320557 2.878962516784668 5.015186309814453 2.880722522735596 C 5.222426414489746 2.897632360458374 5.39954662322998 2.993782520294189 5.513946533203125 3.151482343673706 L 5.533006191253662 3.177752494812012 L 5.533006191253662 3.179323434829712 C 5.629080772399902 3.317046880722046 5.89268684387207 3.715126514434814 6.170626640319824 4.134852409362793 L 6.18808650970459 4.16121244430542 C 6.454266548156738 4.564352512359619 6.79085636138916 5.075982570648193 6.863666534423828 5.191502571105957 C 7.017266273498535 5.431772232055664 7.002276420593262 5.73066234588623 6.818756580352783 6.079342365264893 C 6.749833106994629 6.21087121963501 6.58582067489624 6.502607822418213 6.343510627746582 6.924715518951416 C 6.487195491790771 7.138776302337646 6.829099655151367 7.580093383789063 7.612836360931396 8.363101959228516 C 8.415510177612305 9.165776252746582 8.861483573913574 9.504301071166992 9.051386833190918 9.632453918457031 C 9.233828544616699 9.527800559997559 9.709402084350586 9.25582218170166 9.89560604095459 9.157341957092285 C 10.08249664306641 9.058662414550781 10.25789642333984 9.008642196655273 10.4169864654541 9.008642196655273 C 10.54829597473145 9.008642196655273 10.67006683349609 9.042392730712891 10.77891635894775 9.108962059020996 C 11.01733684539795 9.255142211914063 12.63592624664307 10.33188247680664 12.81881618499756 10.46026229858398 C 12.9801664352417 10.57346248626709 13.07827663421631 10.75151252746582 13.09507656097412 10.96161270141602 C 13.11151599884033 11.16723251342773 13.04696655273438 11.38529205322266 12.91330623626709 11.57563209533691 C 12.8076868057251 11.72723197937012 12.53506660461426 12.07343196868896 12.21776676177979 12.40457248687744 C 12.03852653503418 12.59110260009766 11.88170623779297 12.73443222045898 11.73823642730713 12.84285259246826 C 11.59233665466309 12.95311260223389 11.42696666717529 13.0780725479126 11.18988609313965 13.0780725479126 Z M 3.554220914840698 4.813468933105469 C 3.560605525970459 5.014088153839111 3.580072402954102 5.42000150680542 3.921936511993408 6.149142265319824 C 4.385886192321777 7.137392520904541 5.246166229248047 8.263532638549805 6.47887659072876 9.496242523193359 C 7.712436199188232 10.73054218292236 8.838556289672852 11.59111213684082 9.825976371765137 12.05407238006592 C 10.55515098571777 12.39677047729492 10.96150016784668 12.41629409790039 11.16240787506104 12.42266368865967 C 11.16355609893799 12.42214870452881 11.16472244262695 12.42163753509521 11.16589641571045 12.42113208770752 C 11.19944667816162 12.40671253204346 11.26926612854004 12.37669277191162 11.34465599060059 12.32015228271484 C 11.45234680175781 12.23939228057861 11.5911865234375 12.11173248291016 11.74615669250488 11.95098209381104 C 12.02481651306152 11.66103267669678 12.29493618011475 11.31887245178223 12.37760639190674 11.20015239715576 L 12.39327239990234 11.17765808105469 C 12.45293521881104 11.07980442047119 12.43524169921875 11.00932216644287 12.42445755004883 10.98286914825439 C 12.22376441955566 10.84603118896484 10.65975856781006 9.807477951049805 10.45155811309814 9.675506591796875 C 10.44696521759033 9.675128936767578 10.44057178497314 9.674802780151367 10.43249607086182 9.674802780151367 C 10.39813613891602 9.674802780151367 10.30676651000977 9.680792808532715 10.20082664489746 9.736282348632813 C 10.01216602325439 9.835391998291016 9.204246520996094 10.2977123260498 9.19611644744873 10.30237197875977 L 9.081216812133789 10.36738204956055 L 9.031096458435059 10.39574241638184 L 8.981416702270508 10.36663246154785 L 8.867835998535156 10.30009269714355 C 8.842836380004883 10.28524208068848 8.255536079406738 9.931072235107422 7.149386405944824 8.82579231262207 C 6.044016361236572 7.720422267913818 5.690676212310791 7.133062362670898 5.67617654800415 7.108602523803711 L 5.609366416931152 6.994602203369141 L 5.580256462097168 6.944912433624268 L 5.608616352081299 6.894792556762695 L 5.673396587371826 6.780322551727295 C 5.678141117095947 6.772024631500244 6.11256742477417 6.012657165527344 6.229354381561279 5.794700622558594 L 6.239916324615479 5.773922443389893 C 6.29864501953125 5.662935256958008 6.303902626037598 5.562220096588135 6.301623344421387 5.527125358581543 C 6.221317291259766 5.401654243469238 5.910152435302734 4.928655624389648 5.641486167907715 4.521742343902588 C 5.36260986328125 4.100187301635742 5.069067001342773 3.659947156906128 4.996992111206055 3.554929733276367 C 4.987154483795166 3.551032066345215 4.971867561340332 3.546111106872559 4.95262622833252 3.543632507324219 C 4.94654655456543 3.542952537536621 4.938516616821289 3.542432308197021 4.929996490478516 3.542432308197021 C 4.879726409912109 3.542432308197021 4.827986240386963 3.560882329940796 4.776206493377686 3.597262382507324 L 4.72928524017334 3.630231618881226 C 4.584126949310303 3.73770546913147 4.285765647888184 3.97822904586792 4.024796485900879 4.228282451629639 C 3.867956399917603 4.379502296447754 3.740596294403076 4.518652439117432 3.656736373901367 4.630462646484375 C 3.600106477737427 4.705962657928467 3.570146322250366 4.776182651519775 3.555736303329468 4.809932231903076 C 3.555261850357056 4.811044692993164 3.554757118225098 4.812227249145508 3.554220914840698 4.813468933105469 Z"/>
    </g>
  </g>
</svg>
